<svg width="42" height="42" viewBox="0 0 42 42" fill="none" xmlns="http://www.w3.org/2000/svg">
<g opacity="0.999992">
<mask id="path-1-inside-1_444_61" fill="white">
<path d="M0 21C0 9.40202 9.40202 0 21 0C32.598 0 42 9.40202 42 21C42 32.598 32.598 42 21 42C9.40202 42 0 32.598 0 21Z"/>
</mask>
<path d="M0 21C0 9.40202 9.40202 0 21 0C32.598 0 42 9.40202 42 21C42 32.598 32.598 42 21 42C9.40202 42 0 32.598 0 21Z" fill="white"/>
<path d="M21 41C9.95431 41 1 32.0457 1 21H-1C-1 33.1503 8.84974 43 21 43V41ZM41 21C41 32.0457 32.0457 41 21 41V43C33.1503 43 43 33.1503 43 21H41ZM21 1C32.0457 1 41 9.95431 41 21H43C43 8.84974 33.1503 -1 21 -1V1ZM21 -1C8.84974 -1 -1 8.84974 -1 21H1C1 9.95431 9.95431 1 21 1V-1Z" fill="#DCDCDC" mask="url(#path-1-inside-1_444_61)"/>
<g clip-path="url(#clip0_444_61)">
<g clip-path="url(#clip1_444_61)">
<g opacity="0.999992">
<path d="M22.0661 14.4551C22.0661 13.866 21.5885 13.3884 20.9994 13.3884C20.4103 13.3884 19.9328 13.866 19.9328 14.4551H22.0661ZM20.2452 28.6494C20.6617 29.0659 21.3371 29.0659 21.7537 28.6494L28.5419 21.8611C28.9585 21.4446 28.9585 20.7692 28.5419 20.3526C28.1253 19.9361 27.45 19.9361 27.0335 20.3526L20.9994 26.3866L14.9655 20.3526C14.5489 19.9361 13.8735 19.9361 13.457 20.3526C13.0404 20.7692 13.0404 21.4446 13.457 21.8611L20.2452 28.6494ZM19.9328 14.4551V27.8951H22.0661V14.4551H19.9328Z" fill="#333333"/>
</g>
</g>
</g>
</g>
<defs>
<clipPath id="clip0_444_61">
<rect width="18" height="16" fill="white" transform="translate(12 13)"/>
</clipPath>
<clipPath id="clip1_444_61">
<rect width="18" height="16" fill="white" transform="translate(12 13)"/>
</clipPath>
</defs>
</svg>
