<svg width="11" height="6" viewBox="0 0 11 6" fill="none" xmlns="http://www.w3.org/2000/svg">
<path d="M10.0295 0.846319C10.0295 0.930348 9.99346 1.00237 9.92143 1.06239L5.23981 5.76202C5.17979 5.82204 5.10177 5.85205 5.00573 5.85205C4.9097 5.85205 4.83767 5.82204 4.78966 5.76202L0.108037 1.06239C0.0360125 1.00237 0 0.930348 0 0.846319C0 0.76229 0.0360125 0.684263 0.108037 0.612238L0.612212 0.108064C0.672233 0.0360384 0.744258 2.6226e-05 0.828287 2.6226e-05C0.912316 2.6226e-05 0.990343 0.0360384 1.06237 0.108064L5.00573 4.05143L8.9671 0.108064C9.02712 0.0360384 9.10515 2.6226e-05 9.20118 2.6226e-05C9.29722 2.6226e-05 9.36924 0.0360384 9.41726 0.108064L9.92143 0.612238C9.99346 0.672259 10.0295 0.750286 10.0295 0.846319Z" fill="#101010"/>
</svg>
