<svg width="22" height="16" viewBox="0 0 22 16" fill="none" xmlns="http://www.w3.org/2000/svg">
<path d="M11 2.45337C14.79 2.45337 18.17 4.58337 19.82 7.95337C18.17 11.3234 14.8 13.4534 11 13.4534C7.2 13.4534 3.83 11.3234 2.18 7.95337C3.83 4.58337 7.21 2.45337 11 2.45337ZM11 0.453369C6 0.453369 1.73 3.56337 0 7.95337C1.73 12.3434 6 15.4534 11 15.4534C16 15.4534 20.27 12.3434 22 7.95337C20.27 3.56337 16 0.453369 11 0.453369ZM11 5.45337C12.38 5.45337 13.5 6.57337 13.5 7.95337C13.5 9.33337 12.38 10.4534 11 10.4534C9.62 10.4534 8.5 9.33337 8.5 7.95337C8.5 6.57337 9.62 5.45337 11 5.45337ZM11 3.45337C8.52 3.45337 6.5 5.47337 6.5 7.95337C6.5 10.4334 8.52 12.4534 11 12.4534C13.48 12.4534 15.5 10.4334 15.5 7.95337C15.5 5.47337 13.48 3.45337 11 3.45337Z" fill="#9F9F9F"/>
</svg>
