<svg width="22" height="16" viewBox="0 0 22 16" fill="none" xmlns="http://www.w3.org/2000/svg">
<path d="M11 2.95337C14.79 2.95337 18.17 5.08337 19.82 8.45337C18.17 11.8234 14.8 13.9534 11 13.9534C7.2 13.9534 3.83 11.8234 2.18 8.45337C3.83 5.08337 7.21 2.95337 11 2.95337ZM11 0.953369C6 0.953369 1.73 4.06337 0 8.45337C1.73 12.8434 6 15.9534 11 15.9534C16 15.9534 20.27 12.8434 22 8.45337C20.27 4.06337 16 0.953369 11 0.953369ZM11 5.95337C12.38 5.95337 13.5 7.07337 13.5 8.45337C13.5 9.83337 12.38 10.9534 11 10.9534C9.62 10.9534 8.5 9.83337 8.5 8.45337C8.5 7.07337 9.62 5.95337 11 5.95337ZM11 3.95337C8.52 3.95337 6.5 5.97337 6.5 8.45337C6.5 10.9334 8.52 12.9534 11 12.9534C13.48 12.9534 15.5 10.9334 15.5 8.45337C15.5 5.97337 13.48 3.95337 11 3.95337Z" fill="#C5C5C5"/>
</svg>
