<svg width="24" height="25" viewBox="0 0 24 25" fill="none" xmlns="http://www.w3.org/2000/svg">
<g clip-path="url(#clip0_377_3396)">
<path fill-rule="evenodd" clip-rule="evenodd" d="M5.20939 17.8512C7.1303 19.2049 9.47183 20 12 20C17 20 21.27 16.89 23 12.5C21.884 9.66813 19.7111 7.36889 16.9671 6.09351L15.4446 7.61599C17.7624 8.47798 19.694 10.2003 20.82 12.5C19.17 15.87 15.8 18 12 18C10.0396 18 8.19356 17.4331 6.63915 16.4215L5.20939 17.8512ZM8.18202 14.8786C8.97813 16.1512 10.3924 17 12 17C14.48 17 16.5 14.98 16.5 12.5C16.5 10.8924 15.6512 9.47813 14.3786 8.68202L12.8953 10.1653C13.8335 10.5256 14.5 11.4354 14.5 12.5C14.5 13.88 13.38 15 12 15C10.9354 15 10.0256 14.3335 9.66529 13.3953L8.18202 14.8786ZM9.52916 12.1172L7.72896 13.9174C7.58045 13.4715 7.5 12.9949 7.5 12.5C7.5 10.02 9.52 8 12 8C12.4949 8 12.9715 8.08045 13.4174 8.22896L11.6172 10.0292C10.5435 10.1944 9.69436 11.0435 9.52916 12.1172ZM14.3628 7.28363C13.6025 7.09745 12.8106 7 12 7C8.21 7 4.83 9.13 3.18 12.5C3.82386 13.815 4.72961 14.9412 5.82063 15.8258L4.41054 17.2359C2.91213 15.9768 1.72996 14.3523 1 12.5C2.73 8.11 7 5 12 5C13.3908 5 14.7251 5.24062 15.9639 5.68247L14.3628 7.28363Z" fill="#9F9F9F"/>
<path fill-rule="evenodd" clip-rule="evenodd" d="M20.7071 3.74626C21.0976 4.13679 21.0976 4.76995 20.7071 5.16048L4.70711 21.1605C4.31658 21.551 3.68342 21.551 3.29289 21.1605C2.90237 20.77 2.90237 20.1368 3.29289 19.7463L19.2929 3.74626C19.6834 3.35574 20.3166 3.35574 20.7071 3.74626Z" fill="#9F9F9F"/>
</g>
<defs>
<clipPath id="clip0_377_3396">
<rect width="24" height="24" fill="white" transform="translate(0 0.453369)"/>
</clipPath>
</defs>
</svg>
