<svg width="12" height="12" viewBox="0 0 12 12" fill="none" xmlns="http://www.w3.org/2000/svg">
<path d="M2.74446 9.5045V10.4987H0V9.5045H2.74446ZM5.50292 8.49633C5.63361 8.49633 5.75029 8.54768 5.85298 8.65036C5.95566 8.75304 6.007 8.86973 6.007 9.00042V11.0028C6.007 11.1334 5.95566 11.2501 5.85298 11.3528C5.75029 11.4555 5.63361 11.5068 5.50292 11.5068H3.50058C3.36989 11.5068 3.25321 11.4555 3.15053 11.3528C3.04784 11.2501 2.9965 11.1334 2.9965 11.0028V9.00042C2.9965 8.86039 3.04784 8.74371 3.15053 8.65036C3.25321 8.55701 3.36989 8.50567 3.50058 8.49633H5.50292ZM6.74912 5.49984V6.494H0V5.49984H6.74912ZM1.75029 1.49517V2.50334H0V1.49517H1.75029ZM12 9.5045V10.4987H6.24504V9.5045H12ZM4.49475 0.501002C4.63477 0.501002 4.75613 0.547676 4.85881 0.641026C4.96149 0.734374 5.00817 0.855727 4.99883 1.00509V2.99342C4.99883 3.13344 4.95216 3.25013 4.85881 3.34348C4.76546 3.43682 4.64411 3.48817 4.49475 3.4975H2.50642C2.36639 3.4975 2.24971 3.44616 2.15636 3.34348C2.06301 3.24079 2.01167 3.12411 2.00233 2.99342V1.00509C2.00233 0.865063 2.05368 0.743709 2.15636 0.641026C2.25904 0.538342 2.37573 0.491667 2.50642 0.501002H4.49475ZM9.50758 4.50567C9.63827 4.50567 9.75496 4.55234 9.85764 4.64569C9.96033 4.73904 10.007 4.85573 9.99767 4.99575V6.99808C9.99767 7.13811 9.95099 7.25479 9.85764 7.34814C9.76429 7.44149 9.64761 7.49283 9.50758 7.50217H7.50525C7.36523 7.50217 7.24854 7.45083 7.15519 7.34814C7.06184 7.24546 7.0105 7.12877 7.00117 6.99808V4.99575C7.00117 4.86506 7.05251 4.74838 7.15519 4.64569C7.25788 4.54301 7.37456 4.49633 7.50525 4.50567H9.50758ZM12 5.49984V6.494H10.2497V5.49984H12ZM12 1.49517V2.50334H5.25087V1.49517H12Z" fill="#101010"/>
</svg>
