<svg width="12" height="11" viewBox="0 0 12 11" fill="none" xmlns="http://www.w3.org/2000/svg">
<path d="M8.81777 0.158188C8.16177 0.158188 7.57377 0.362188 7.05377 0.770188C6.66177 1.07419 6.31377 1.49019 6.00977 2.01819C5.72977 1.49819 5.38577 1.08219 4.97777 0.770188C4.44977 0.362188 3.85777 0.158188 3.20177 0.158188C2.60177 0.158188 2.05777 0.308188 1.56977 0.608189C1.08177 0.908188 0.699766 1.32219 0.423766 1.85019C0.147766 2.37819 0.00976562 2.96619 0.00976562 3.61419C0.00976562 4.12619 0.113766 4.62219 0.321766 5.10219C0.505766 5.55019 0.793766 6.01019 1.18577 6.48219C1.52177 6.89019 1.97377 7.35019 2.54177 7.86219C2.89377 8.19019 3.48177 8.70219 4.30577 9.39819L4.66577 9.69819C5.13777 10.1142 5.50177 10.4342 5.75777 10.6582C5.82177 10.7142 5.90577 10.7422 6.00977 10.7422C6.11377 10.7422 6.19777 10.7142 6.26177 10.6582C6.51777 10.4342 6.88177 10.1142 7.35377 9.69819L7.71377 9.39819C8.52977 8.71019 9.11777 8.19819 9.47777 7.86219C10.0458 7.35019 10.4978 6.89019 10.8338 6.48219C11.2258 6.01019 11.5138 5.55019 11.6978 5.10219C11.9058 4.62219 12.0098 4.12619 12.0098 3.61419C12.0098 2.96619 11.8718 2.37819 11.5958 1.85019C11.3198 1.32219 10.9378 0.908188 10.4498 0.608189C9.96177 0.308188 9.41777 0.158188 8.81777 0.158188Z" fill="#AEAEAE"/>
</svg>
