<svg width="12" height="11" viewBox="0 0 12 11" fill="none" xmlns="http://www.w3.org/2000/svg">
<path d="M8.81777 0.158203C8.16177 0.158203 7.57377 0.362203 7.05377 0.770203C6.66177 1.07421 6.31377 1.49021 6.00977 2.01821C5.72977 1.49821 5.38577 1.08221 4.97777 0.770203C4.44977 0.362203 3.85777 0.158203 3.20177 0.158203C2.60177 0.158203 2.05777 0.308203 1.56977 0.608204C1.08177 0.908203 0.699766 1.32221 0.423766 1.85021C0.147766 2.37821 0.00976562 2.96621 0.00976562 3.61421C0.00976562 4.12621 0.113766 4.62221 0.321766 5.10221C0.505766 5.55021 0.793766 6.01021 1.18577 6.48221C1.52177 6.89021 1.97377 7.35021 2.54177 7.86221C2.89377 8.19021 3.48177 8.7022 4.30577 9.3982L4.66577 9.6982C5.13777 10.1142 5.50177 10.4342 5.75777 10.6582C5.82177 10.7142 5.90577 10.7422 6.00977 10.7422C6.11377 10.7422 6.19777 10.7142 6.26177 10.6582C6.51777 10.4342 6.88177 10.1142 7.35377 9.6982L7.71377 9.3982C8.52977 8.7102 9.11777 8.19821 9.47777 7.86221C10.0458 7.35021 10.4978 6.89021 10.8338 6.48221C11.2258 6.01021 11.5138 5.55021 11.6978 5.10221C11.9058 4.62221 12.0098 4.12621 12.0098 3.61421C12.0098 2.96621 11.8718 2.37821 11.5958 1.85021C11.3198 1.32221 10.9378 0.908203 10.4498 0.608204C9.96177 0.308203 9.41777 0.158203 8.81777 0.158203Z" fill="#DD7C7C"/>
</svg>
