<svg width="19" height="21" viewBox="0 0 19 21" fill="none" xmlns="http://www.w3.org/2000/svg">
<g clip-path="url(#clip0_104_1788)">
<path d="M0.25 10.5C0.25 9.23266 0.496798 8.01868 0.990395 6.85806C1.48399 5.69744 2.15101 4.70358 2.99146 3.87647C3.83191 3.04937 4.83244 2.38234 5.99306 1.87541C7.15368 1.36847 8.36766 1.12167 9.635 1.13501C10.9023 1.14835 12.1163 1.39515 13.2769 1.87541C14.4376 2.35566 15.4314 3.02268 16.2585 3.87647C17.0856 4.73026 17.7527 5.72412 18.2596 6.85806C18.7665 7.992 19.0133 9.20598 19 10.5C18.9867 11.794 18.7399 13.008 18.2596 14.1419C17.7793 15.2759 17.1123 16.2764 16.2585 17.1435C15.4047 18.0107 14.4109 18.6777 13.2769 19.1446C12.143 19.6115 10.929 19.8583 9.635 19.885C8.34098 19.9117 7.127 19.6649 5.99306 19.1446C4.85912 18.6243 3.85859 17.9573 2.99146 17.1435C2.12433 16.3298 1.45731 15.3292 0.990395 14.1419C0.523479 12.9546 0.276681 11.7407 0.25 10.5ZM3.79189 11.1203C3.79189 11.4138 3.89194 11.6673 4.09205 11.8807L7.15368 14.9424C7.34045 15.1425 7.58725 15.2425 7.89408 15.2425C8.20091 15.2425 8.45438 15.1425 8.65448 14.9424L14.9578 8.63901C15.1713 8.42557 15.278 8.1721 15.278 7.87861C15.278 7.58512 15.1713 7.33832 14.9578 7.13821C14.7444 6.93811 14.4909 6.83805 14.1974 6.83805C13.9039 6.83805 13.6572 6.93811 13.457 7.13821L7.91409 12.7012L5.59285 10.3799C5.39274 10.1798 5.14594 10.0798 4.85245 10.0798C4.55896 10.0798 4.30883 10.1832 4.10205 10.3899C3.89528 10.5967 3.79189 10.8402 3.79189 11.1203Z" fill="#062236"/>
</g>
<defs>
<clipPath id="clip0_104_1788">
<rect width="18.75" height="21" fill="white" transform="matrix(1 0 0 -1 0.25 21)"/>
</clipPath>
</defs>
</svg>
