<svg width="12" height="36" viewBox="0 0 12 36" fill="none" xmlns="http://www.w3.org/2000/svg">
<g clip-path="url(#clip0_466_111)">
<path d="M11.2424 16.3976C11.2424 16.4816 11.2063 16.5536 11.1343 16.6137L6.4527 21.3133C6.39268 21.3733 6.31466 21.4033 6.21862 21.4033C6.12259 21.4033 6.05056 21.3733 6.00255 21.3133L1.32093 16.6137C1.2489 16.5536 1.21289 16.4816 1.21289 16.3976C1.21289 16.3136 1.2489 16.2355 1.32093 16.1635L1.8251 15.6593C1.88512 15.5873 1.95715 15.5513 2.04118 15.5513C2.12521 15.5513 2.20323 15.5873 2.27526 15.6593L6.21862 19.6027L10.18 15.6593C10.24 15.5873 10.318 15.5513 10.4141 15.5513C10.5101 15.5513 10.5821 15.5873 10.6301 15.6593L11.1343 16.1635C11.2063 16.2235 11.2424 16.3016 11.2424 16.3976Z" fill="#101010"/>
</g>
<defs>
<clipPath id="clip0_466_111">
<rect width="11.56" height="35" fill="white" transform="matrix(1 0 0 -1 0.439453 35.5)"/>
</clipPath>
</defs>
</svg>
