<svg width="12" height="20" viewBox="0 0 12 20" fill="none" xmlns="http://www.w3.org/2000/svg">
<g clip-path="url(#clip0_104_2084)">
<path d="M4.2329 15.9404C3.84754 15.9404 3.53017 15.7817 3.28082 15.4644L0.220549 11.452C0.0391995 11.18 -0.0288064 10.8853 0.0165309 10.568C0.0618682 10.2506 0.209215 9.98991 0.45857 9.78589C0.707925 9.58187 0.996951 9.50253 1.32565 9.54787C1.65434 9.5932 1.9207 9.75188 2.12472 10.0239L4.13089 12.6421L9.16334 4.58343C9.34469 4.31141 9.58837 4.14139 9.8944 4.07338C10.2004 4.00538 10.5008 4.05072 10.7955 4.2094C11.0675 4.39075 11.2375 4.63443 11.3055 4.94046C11.3735 5.24649 11.3282 5.54685 11.1695 5.84154L5.21899 15.3624C4.9923 15.7251 4.67494 15.9064 4.26691 15.9064L4.2329 15.9404Z" fill="white"/>
</g>
<defs>
<clipPath id="clip0_104_2084">
<rect width="11.34" height="20" fill="white" transform="matrix(1 0 0 -1 0 19.99)"/>
</clipPath>
</defs>
</svg>
