<svg width="12" height="35" viewBox="0 0 12 35" fill="none" xmlns="http://www.w3.org/2000/svg">
<g clip-path="url(#clip0_466_105)">
<path d="M2.74446 21.5045V22.4987H0V21.5045H2.74446ZM5.50292 20.4963C5.63361 20.4963 5.75029 20.5477 5.85298 20.6504C5.95566 20.753 6.007 20.8697 6.007 21.0004V23.0028C6.007 23.1334 5.95566 23.2501 5.85298 23.3528C5.75029 23.4555 5.63361 23.5068 5.50292 23.5068H3.50058C3.36989 23.5068 3.25321 23.4555 3.15053 23.3528C3.04784 23.2501 2.9965 23.1334 2.9965 23.0028V21.0004C2.9965 20.8604 3.04784 20.7437 3.15053 20.6504C3.25321 20.557 3.36989 20.5057 3.50058 20.4963H5.50292ZM6.74912 17.4998V18.494H0V17.4998H6.74912ZM1.75029 13.4952V14.5033H0V13.4952H1.75029ZM12 21.5045V22.4987H6.24504V21.5045H12ZM4.49475 12.501C4.63477 12.501 4.75613 12.5477 4.85881 12.641C4.96149 12.7344 5.00817 12.8557 4.99883 13.0051V14.9934C4.99883 15.1334 4.95216 15.2501 4.85881 15.3435C4.76546 15.4368 4.64411 15.4882 4.49475 15.4975H2.50642C2.36639 15.4975 2.24971 15.4462 2.15636 15.3435C2.06301 15.2408 2.01167 15.1241 2.00233 14.9934V13.0051C2.00233 12.8651 2.05368 12.7437 2.15636 12.641C2.25904 12.5383 2.37573 12.4917 2.50642 12.501H4.49475ZM9.50758 16.5057C9.63827 16.5057 9.75496 16.5523 9.85764 16.6457C9.96033 16.739 10.007 16.8557 9.99767 16.9958V18.9981C9.99767 19.1381 9.95099 19.2548 9.85764 19.3481C9.76429 19.4415 9.64761 19.4928 9.50758 19.5022H7.50525C7.36523 19.5022 7.24854 19.4508 7.15519 19.3481C7.06184 19.2455 7.0105 19.1288 7.00117 18.9981V16.9958C7.00117 16.8651 7.05251 16.7484 7.15519 16.6457C7.25788 16.543 7.37456 16.4963 7.50525 16.5057H9.50758ZM12 17.4998V18.494H10.2497V17.4998H12ZM12 13.4952V14.5033H5.25087V13.4952H12Z" fill="#101010"/>
</g>
<defs>
<clipPath id="clip0_466_105">
<rect width="12" height="35" fill="white" transform="matrix(1 0 0 -1 0 35)"/>
</clipPath>
</defs>
</svg>
