<svg width="15" height="45" viewBox="0 0 15 45" fill="none" xmlns="http://www.w3.org/2000/svg">
<g clip-path="url(#clip0_104_1855)">
<path d="M14.218 22.7242C14.3888 22.895 14.4475 23.0391 14.3941 23.1565C14.3407 23.2739 14.1966 23.3326 13.9618 23.3326H12.6169V28.2961C12.6169 28.4455 12.6115 28.5576 12.6009 28.6323C12.5902 28.707 12.5475 28.7764 12.4728 28.8405C12.3981 28.9045 12.2753 28.9365 12.1045 28.9365H8.83825V23.9731H5.57199V28.9365H2.46583C2.16696 28.9365 1.98016 28.8832 1.90544 28.7764C1.83072 28.6697 1.79336 28.5096 1.79336 28.2961V23.3326H0.448431C0.213602 23.3326 0.0695015 23.2739 0.0161312 23.1565C-0.0372392 23.0391 0.0214682 22.895 0.192253 22.7242L6.5967 16.2877C6.76748 16.117 6.97029 16.0316 7.20512 16.0316C7.43995 16.0316 7.64276 16.117 7.81354 16.2877L14.218 22.7242Z" fill="#A3A3A3"/>
</g>
<defs>
<clipPath id="clip0_104_1855">
<rect width="14.41" height="45" fill="white" transform="matrix(1 0 0 -1 0 45)"/>
</clipPath>
</defs>
</svg>
