<svg width="60" height="60" viewBox="0 0 35 34" fill="none" xmlns="http://www.w3.org/2000/svg">
<g filter="url(#filter0_d_99_8476)">
<path d="M21.1765 6.83333V3.91667C21.1765 3.14312 20.8666 2.40125 20.315 1.85427C19.7634 1.30729 19.0153 1 18.2353 1H7.94118C7.16113 1 6.41303 1.30729 5.86145 1.85427C5.30987 2.40125 5 3.14312 5 3.91667V21.4167C5 22.1902 5.30987 22.9321 5.86145 23.4791C6.41303 24.026 7.16113 24.3333 7.94118 24.3333H18.2353C19.0153 24.3333 19.7634 24.026 20.315 23.4791C20.8666 22.9321 21.1765 22.1902 21.1765 21.4167V18.5M12.3529 12.6667H30M30 12.6667L25.5882 8.29167M30 12.6667L25.5882 17.0417" stroke="black" stroke-width="2" stroke-linecap="round" stroke-linejoin="round" shape-rendering="crispEdges"/>
</g>
<defs>
<filter id="filter0_d_99_8476" x="0" y="0" width="35" height="33.3334" filterUnits="userSpaceOnUse" color-interpolation-filters="sRGB">
<feFlood flood-opacity="0" result="BackgroundImageFix"/>
<feColorMatrix in="SourceAlpha" type="matrix" values="0 0 0 0 0 0 0 0 0 0 0 0 0 0 0 0 0 0 127 0" result="hardAlpha"/>
<feOffset dy="4"/>
<feGaussianBlur stdDeviation="2"/>
<feComposite in2="hardAlpha" operator="out"/>
<feColorMatrix type="matrix" values="0 0 0 0 0 0 0 0 0 0 0 0 0 0 0 0 0 0 0.25 0"/>
<feBlend mode="normal" in2="BackgroundImageFix" result="effect1_dropShadow_99_8476"/>
<feBlend mode="normal" in="SourceGraphic" in2="effect1_dropShadow_99_8476" result="shape"/>
</filter>
</defs>
</svg>