<svg width="27" height="26" viewBox="0 0 27 26" fill="none" xmlns="http://www.w3.org/2000/svg">
<path d="M17.1765 6.83333V3.91667C17.1765 3.14312 16.8666 2.40125 16.315 1.85427C15.7634 1.30729 15.0153 1 14.2353 1H3.94118C3.16113 1 2.41303 1.30729 1.86145 1.85427C1.30987 2.40125 1 3.14312 1 3.91667V21.4167C1 22.1902 1.30987 22.9321 1.86145 23.4791C2.41303 24.026 3.16113 24.3333 3.94118 24.3333H14.2353C15.0153 24.3333 15.7634 24.026 16.315 23.4791C16.8666 22.9321 17.1765 22.1902 17.1765 21.4167V18.5M8.35294 12.6667H26M26 12.6667L21.5882 8.29167M26 12.6667L21.5882 17.0417" stroke="black" stroke-width="2" stroke-linecap="round" stroke-linejoin="round"/>
</svg>
