<svg width="24" height="23" viewBox="0 0 24 23" fill="none" xmlns="http://www.w3.org/2000/svg">
<mask id="path-1-inside-1_78_5144" fill="white">
<path d="M3.08221 6.10352e-05H23.0822V23.0001H3.08221V6.10352e-05Z"/>
</mask>
<path d="M23.0822 6.10352e-05H24.3822V-1.29994H23.0822V6.10352e-05ZM23.0822 23.0001V24.3001H24.3822V23.0001H23.0822ZM3.08221 1.30006H23.0822V-1.29994H3.08221V1.30006ZM21.7822 6.10352e-05V23.0001H24.3822V6.10352e-05H21.7822ZM23.0822 21.7001H3.08221V24.3001H23.0822V21.7001Z" fill="black" mask="url(#path-1-inside-1_78_5144)"/>
<path d="M12.9183 12.1625L13.5683 12.1625L13.5683 10.8625L12.9183 10.8625L12.9183 12.1625ZM12.9183 10.8625L0.918274 10.8625L0.918274 12.1625L12.9183 12.1625L12.9183 10.8625Z" fill="black"/>
<path d="M4.84525 15.0447L1.20888 11.5063L4.84525 7.96782" stroke="black" stroke-width="1.3"/>
</svg>
