<svg width="18" height="18" viewBox="0 0 18 18" fill="none" xmlns="http://www.w3.org/2000/svg">
<path d="M12.5006 11.454H11.7106L11.4306 11.184C12.6306 9.78399 13.2506 7.874 12.9106 5.844C12.4406 3.064 10.1206 0.843995 7.32063 0.503995C3.09063 -0.0160052 -0.469374 3.54399 0.0506256 7.77399C0.390626 10.574 2.61063 12.894 5.39063 13.364C7.42063 13.704 9.33063 13.084 10.7306 11.884L11.0006 12.164V12.954L15.2506 17.204C15.6606 17.614 16.3306 17.614 16.7406 17.204C17.1506 16.794 17.1506 16.124 16.7406 15.714L12.5006 11.454ZM6.50063 11.454C4.01063 11.454 2.00063 9.44399 2.00063 6.95399C2.00063 4.46399 4.01063 2.45399 6.50063 2.45399C8.99063 2.45399 11.0006 4.46399 11.0006 6.95399C11.0006 9.44399 8.99063 11.454 6.50063 11.454Z" fill="#575757"/>
</svg>
