<svg width="42" height="42" viewBox="0 0 42 42" fill="none" xmlns="http://www.w3.org/2000/svg">
<g opacity="0.999992">
<mask id="path-1-inside-1_444_52" fill="white">
<path d="M0 21C0 9.40202 9.40202 0 21 0C32.598 0 42 9.40202 42 21C42 32.598 32.598 42 21 42C9.40202 42 0 32.598 0 21Z"/>
</mask>
<path d="M0 21C0 9.40202 9.40202 0 21 0C32.598 0 42 9.40202 42 21C42 32.598 32.598 42 21 42C9.40202 42 0 32.598 0 21Z" fill="white"/>
<path d="M21 41C9.95431 41 1 32.0457 1 21H-1C-1 33.1503 8.84974 43 21 43V41ZM41 21C41 32.0457 32.0457 41 21 41V43C33.1503 43 43 33.1503 43 21H41ZM21 1C32.0457 1 41 9.95431 41 21H43C43 8.84974 33.1503 -1 21 -1V1ZM21 -1C8.84974 -1 -1 8.84974 -1 21H1C1 9.95431 9.95431 1 21 1V-1Z" fill="#DCDCDC" mask="url(#path-1-inside-1_444_52)"/>
<g clip-path="url(#clip0_444_52)">
<g clip-path="url(#clip1_444_52)">
<g opacity="0.999992">
<path d="M19.9328 27.8949C19.9328 28.484 20.4103 28.9616 20.9994 28.9616C21.5885 28.9616 22.0661 28.484 22.0661 27.8949H19.9328ZM21.7537 13.7006C21.3371 13.284 20.6617 13.284 20.2452 13.7006L13.457 20.4888C13.0404 20.9054 13.0404 21.5808 13.457 21.9973C13.8735 22.4139 14.5489 22.4139 14.9654 21.9973L20.9994 15.9633L27.0334 21.9973C27.45 22.4139 28.1253 22.4139 28.5419 21.9973C28.9585 21.5808 28.9585 20.9054 28.5419 20.4888L21.7537 13.7006ZM22.0661 27.8949V14.4549H19.9328V27.8949H22.0661Z" fill="#333333"/>
</g>
</g>
</g>
</g>
<defs>
<clipPath id="clip0_444_52">
<rect width="18" height="16" fill="white" transform="translate(12 13)"/>
</clipPath>
<clipPath id="clip1_444_52">
<rect width="18" height="16" fill="white" transform="translate(12 13)"/>
</clipPath>
</defs>
</svg>
